{"title":"Rugby.Union-Scrum.V-2013.03.17.pdtv.x264","uid":8278677,"size":637827185,"categoryP":"video","categoryS":"tv_shows","magnet":"?xt=urn:btih:6a74d54e92bea632c896303fb405b7ca80d25270&amp;dn=Rugby.Union-Scrum.V-2013.03.17.pdtv.x264&amp;tr=udp%3A%2F%2Ftracker.openbittorrent.com%3A80&amp;tr=udp%3A%2F%2Fopen.demonii.com%3A1337&amp;tr=udp%3A%2F%2Ftracker.coppersurfer.tk%3A6969&amp;tr=udp%3A%2F%2Fexodus.desync.com%3A6969","seeders":1,"leechers":0,"uploader":"rugbybill","files":4,"time":1363740254,"description":"SPORT: Scrum V - Six Nations Special\nOn: BBC 2 Wales \nDate: Sunday 17th March 2013 \nTime: 19:00 to 20:00 \n\nJason Mohammad presents the Scrum V Six Nations Special with all the reaction and analysis from Wales's final Six Nations match against England. Special guests include Wales legends Gareth Edwards, Shane Williams and Jonathan Davies.\n\n[608Mb, 59mins, 720x416[16:9], 1292Kbps, x264/mp4; Audio: AAC-LC, 128Kbps]\n\nGeneral\nComplete name: 2013.03.17.Scrum.V.pdtv.x264.mp4\nFormat : MPEG-4\nFormat profile : Base Media\nCodec ID : isom\nFile size: 608 MiB\nDuration : 59mn 38s\nOverall bit rate mode: Variable\nOverall bit rate : 1 425 Kbps\n\nVideo\nID : 1\nFormat : AVC\nFormat/Info: Advanced Video Codec\nFormat profile : &lt;a class=&quot;__cf_email__&quot; href=&quot;/cdn-cgi/l/email-protection&quot; data-cfemail=&quot;6a22030d022a2659445b&quot;&gt;[email&amp;#160;protected]&lt;/a&gt;&lt;script cf-hash='f9e31' type=&quot;text/javascript&quot;&gt;\n/* &lt;![CDATA[ */!function(){try{var t=&quot;currentScript&quot;in document?document.currentScript:function(){for(var t=document.getElementsByTagName(&quot;script&quot;),e=t.length;e--;)if(t[e].getAttribute(&quot;cf-hash&quot;))return t[e]}();if(t&amp;&amp;t.previousSibling){var e,r,n,i,c=t.previousSibling,a=c.getAttribute(&quot;data-cfemail&quot;);if(a){for(e=&quot;&quot;,r=parseInt(a.substr(0,2),16),n=2;a.length-n;n+=2)i=parseInt(a.substr(n,2),16)^r,e+=String.fromCharCode(i);e=document.createTextNode(e),c.parentNode.replaceChild(e,c)}}}catch(u){}}();/* ]]&gt; */&lt;/script&gt;\nFormat settings, CABAC : Yes\nFormat settings, ReFrames: 5 frames\nCodec ID : avc1\nCodec ID/Info: Advanced Video Coding\nDuration : 59mn 38s\nBit rate : 1 292 Kbps\nMaximum bit rate : 5 457 Kbps\nWidth: 720 pixels\nHeight : 416 pixels\nDisplay aspect ratio : 1.731\nFrame rate mode: Constant\nFrame rate : 25.000 fps\nColor space: YUV\nChroma subsampling : 4:2:0\nBit depth: 8 bits\nScan type: Progressive\nBits/(Pixel*Frame) : 0.173\nStream size: 551 MiB (91%)\nWriting library: x264 core 130 r2273 b3065e6\n\nAudio\nID : 2\nFormat : AAC\nFormat/Info: Advanced Audio Codec\nFormat profile : LC\nCodec ID : 40\nDuration : 59mn 38s\nBit rate mode: Variable\nBit rate : 128 Kbps\nMaximum bit rate : 142 Kbps\nChannel(s) : 2 channels\nChannel positions: Front: L R\nSampling rate: 48.0 KHz\nCompression mode : Lossy\nStream size: 54.6 MiB (9%)","torrent":{"xt":"urn:btih:6a74d54e92bea632c896303fb405b7ca80d25270","amp;dn":"Rugby.Union-Scrum.V-2013.03.17.pdtv.x264","amp;tr":["udp%3A%2F%2Ftracker.openbittorrent.com%3A80","udp%3A%2F%2Fopen.demonii.com%3A1337","udp%3A%2F%2Ftracker.coppersurfer.tk%3A6969","udp%3A%2F%2Fexodus.desync.com%3A6969"],"infoHash":"6a74d54e92bea632c896303fb405b7ca80d25270","infoHashBuffer":{"type":"Buffer","data":[106,116,213,78,146,190,166,50,200,150,48,63,180,5,183,202,128,210,82,112]},"announce":[],"urlList":[]}}